PathFileType	4	(X/Y/Z)	C:/Users/beibeiliu/ov580/test_trc/capture2\sequence.33_training_dense_right.trc
DataRate	CameraRate	NumFrames	NumMarkers	Units	OrigDataRate	OrigDataStartFrame	OrigNumFrames
120	120	21	19	mm	120	85	336
Frame#	Time	ThumbCMC			ThumbMCP			ThumbIP			ThumbTip			IndexMCP			IndexPIP			IndexTip			MiddleMCP			MiddlePIP			MiddleTip			RingMCP			RingPIP			RingTip			PinkyMCP			PinkyPIP			PinkyTip			BackHand1			BackHand2			BackHand3	
		X0	Y0	Z0	X1	Y1	Z1	X2	Y2	Z2	X3	Y3	Z3	X4	Y4	Z4	X5	Y5	Z5	X6	Y6	Z6	X7	Y7	Z7	X8	Y8	Z8	X9	Y9	Z9	X10	Y10	Z10	X11	Y11	Z11	X12	Y12	Z12	X13	Y13	Z13	X14	Y14	Z14	X15	Y15	Z15	X16	Y16	Z16	X17	Y17	Z17	X18	Y18	Z18	
84	0.7	129.299	36.2387	24.4984	113.123	35.9941	-6.22905	106.237	41.0571	-34.0741	109.095	33.1395	-54.899	173.183	41.888	-36.2869	161.997	37.9846	-64.9568	135.904	34.4212	-79.5608	172.566	21.313	-41.267	153.569	21.5389	-71.1501	118.599	16.8295	-72.292	160.92	3.33943	-45.14	131.322	-1.38596	-54.6564	113.814	8.60978	-27.8655	153.368	-18.4905	-33.5143	121.951	-12.633	-34.8459	119.983	0.870095	-6.72492	175.228	-4.30832	10.2235	165.796	-12.2395	39.9515	167.467	19.6112	27.0383	
85	0.708333	125.2	36.7763	28.2175	107.349	37.3629	-0.452104	104.219	40.9196	-27.4145	104.23	40.15	-51.1725	167.513	51.1014	-26.5891	159.933	52.0512	-57.2534	133.912	44.014	-74.4246	171.909	35.966	-39.0728	157.549	31.9134	-64.1317	119.028	25.0486	-68.0538	163.502	9.63027	-41.7176	136.774	10.4154	-52.2304	114.375	6.24581	-24.6715	155.519	-7.53743	-34.1065	127.412	-6.64194	-33.9785	123.961	3.97782	-2.35017	175.14	2.80699	17.1485	164.574	-8.37487	45.4711	163.442	24.041	36.7742	
86	0.716667	120.196	38.1307	33.4458	102.033	38.0448	5.89814	98.1889	47.2348	-22.8394	100.709	46.2882	-45.3692	163.66	62.4022	-21.2826	156.255	63.3348	-47.1403	130.194	50.6133	-68.132	171.216	44.7149	-30.5681	154.217	43.2772	-59.3148	118.767	32.7353	-61.2781	164.336	21.7834	-38.3285	135.56	19.5462	-47.1681	115.934	14.809	-20.3746	159.704	2.47735	-29.7585	130.461	2.73708	-31.3873	122.411	5.74169	-2.01053	175.92	10.2215	18.858	169.299	-3.04168	48.0624	162.253	31.8299	39.9179	
87	0.725	116.571	35.9422	40.6785	102.514	39.9138	7.39543	95.1793	49.2355	-18.0923	101.978	50.9069	-43.1815	159.066	69.9814	-12.8178	151.078	73.922	-39.3132	128.274	65.5391	-59.1912	167.323	56.6804	-25.2204	151.107	56.3019	-50.545	121.808	38.4255	-57.6552	163.447	33.4606	-31.2744	136.186	23.6323	-42.7936	116.876	16.0691	-18.0979	162.454	9.73761	-27.2911	134.079	7.59367	-28.1862	125.863	5.97012	3.99543	177.764	16.0572	25.797	167.779	2.5202	49.1619	156.805	33.5349	47.4735	
88	0.733333	113.297	34.6576	45.9858	96.9807	39.5139	13.7044	94.5585	48.4236	-10.4267	102.105	52.2432	-35.704	153.219	76.3176	-3.74717	144.64	81.3142	-34.8043	121.286	69.8784	-52.1623	165.788	62.5581	-18.5468	150.96	62.8638	-44.3271	118.785	45.5593	-52.3461	159.129	43.4657	-25.0614	133.386	31.1828	-36.1863	117.048	15.0931	-10.0595	164.113	21.1611	-20.9478	134.488	11.7604	-24.6077	126.596	10.4479	8.48477	174.471	26.6495	27.9311	167.711	9.80197	53.0883	154.002	39.5249	52.5104	
89	0.741667	113.367	37.7328	46.3091	97.8858	38.9671	17.6991	92.0401	51.8831	-7.60883	99.4168	55.1301	-28.7609	147.289	83.0281	4.12247	139.042	91.6546	-22.4272	121.543	73.4779	-47.3399	161.549	68.8805	-9.73578	144.864	70.5248	-38.7031	116.097	49.589	-44.9479	158.051	49.4927	-19.7676	136.157	34.9287	-32.2122	116.975	21.8161	-7.83703	164.964	25.9258	-18.7688	137.865	19.3391	-22.9981	125.78	11.8717	6.56587	175.58	27.9217	34.7495	169.582	10.244	55.8166	151.848	44.8074	56.9056	
90	0.75	109.781	35.5651	52.2594	96.0937	41.6616	20.0083	91.9237	54.9856	-4.93569	97.0101	60.99	-27.3573	141.644	90.1581	11.4667	137.312	94.1298	-16.4823	119.546	82.6127	-39.0433	158.848	74.257	-1.85868	142.45	76.3159	-31.3333	118.209	54.4252	-41.1839	159.912	52.7106	-13.3198	132.175	38.9903	-25.874	119.153	22.1052	-0.602461	165.613	33.5451	-12.2754	139.035	21.0128	-19.6163	128.257	16.3523	7.77491	173.261	36.6466	38.1553	165.783	13.0038	64.1796	148.8	46.5494	62.9846	
91	0.758333	112.816	34.4372	55.2241	96.2997	42.5069	23.9258	92.1534	50.9143	3.25745	94.393	63.3448	-19.9863	140.456	90.4203	16.9268	130.096	99.655	-11.9839	116.2	86.1058	-34.0904	154.964	80.1305	2.74694	138.321	79.8059	-28.0154	115.418	56.44	-35.6743	156.552	59.9018	-9.06525	132.427	41.2427	-22.9145	119.724	26.8584	1.26094	167.964	38.0273	-9.89665	139.005	27.7378	-15.9212	128.843	19.7125	9.9938	174.389	40.4683	42.3211	169.666	15.4265	65.4953	147.044	44.3547	68.1906	
92	0.766667	111.047	35.9872	57.9638	100.306	39.9185	28.1584	89.427	53.0557	7.21454	97.1546	64.3978	-14.1193	134.186	94.3133	24.4296	125.978	104.469	-5.04282	114.205	89.8422	-28.5786	151.914	85.5391	9.36868	135.191	86.5976	-19.952	118.158	60.9795	-32.532	153.7	65.2963	-2.87898	134.604	49.7225	-19.7203	122.008	25.9862	8.09182	165.303	46.7807	-8.01787	141.885	36.0945	-15.4919	128.49	23.4671	13.5888	173.972	42.9986	47.3471	171.543	16.8009	68.8073	146.005	44.862	70.7921	
93	0.775	111.119	35.5774	62.3496	96.1216	39.8467	32.3328	89.3564	57.8751	9.693	90.091	69.1206	-10.6124	131.408	96.5457	31.5246	121.856	109.343	5.43782	110.992	93.7318	-22.6412	147.067	90.1252	18.1697	134.147	90.1805	-16.5271	111.969	66.2205	-26.7597	151.624	70.1961	1.12462	132.736	55.3964	-14.2618	119.22	34.0929	6.33268	163.74	52.9528	-1.31024	140.731	39.6456	-12.8161	129.149	25.7596	15.1485	174.308	47.1592	49.391	167.443	19.9953	73.1975	146.463	50.4082	75.0254	
94	0.783333	110.854	32.0487	66.3544	95.3653	38.5972	36.9133	85.7716	57.8313	13.9538	92.7163	71.6357	-7.84436	129.576	98.6404	35.1703	119.03	111.215	8.25229	104.382	101.742	-14.6403	144.451	94.7495	21.8929	129.885	96.2667	-9.45692	109.786	71.0485	-23.4525	151.093	75.9227	5.09079	132.259	59.3642	-11.3164	121.106	34.0976	8.09827	161.882	58.9852	6.68817	138.857	47.7047	-8.16204	127.564	29.0582	19.0969	171.561	49.6996	52.9573	170.121	26.2446	71.1511	143.683	48.8211	82.0634	
95	0.791667	107.242	34.7754	68.1658	92.3275	40.8442	39.2223	84.5849	60.4614	15.4525	92.9474	72.3421	-1.79847	123.477	100.427	43.8554	115.025	114.166	15.3083	101.368	105.44	-8.77879	144.036	96.0869	27.5731	127.719	103.471	-2.15454	110.472	78.7501	-20.3444	148.357	80.9335	12.8991	129.464	66.7274	-7.11943	119.472	39.146	10.3891	159.277	65.1626	8.58949	136.884	49.714	-4.83229	128.726	32.3815	18.4144	168.877	54.3662	59.4357	169.863	28.7461	75.399	144.637	52.0967	80.6507	
96	0.8	105.384	36.3903	70.8144	95.8657	44.8039	39.5725	85.8033	58.8964	20.499	91.0924	74.6406	-0.0829439	120.25	103.287	47.9035	110.457	117.433	24.044	102.769	107.663	-5.45734	137.534	103.258	29.9963	127.524	106.301	0.43245	107.752	86.0907	-16.1519	148.452	82.3384	15.1029	125.808	66.8479	-4.34395	115.406	43.1898	15.4679	161.53	66.4885	9.23459	134.001	54.7971	-0.273897	126.597	33.2355	19.0022	166.129	54.6577	62.3581	166.647	31.5034	78.1499	141.998	49.8406	86.2904	
97	0.808333	104.353	36.1866	71.0281	95.3353	44.4783	42.137	81.2719	59.0658	22.4791	91.3404	75.655	1.80439	121.913	103.596	49.4316	110.631	117.576	24.6364	99.5628	108.523	-2.61541	135.875	105.632	33.2124	123.1	110.154	6.1505	104.909	86.1629	-14.5796	144.43	86.1431	14.3928	127.942	70.7097	-4.02551	118.609	42.6269	13.5455	156.844	69.6779	13.0031	134.655	52.1245	-0.494504	128.15	32.8582	24.8544	167.092	57.7504	60.8799	167.998	33.3414	78.9415	140.132	52.721	86.5462	
98	0.816667	104.455	34.4788	73.5597	92.1229	42.7344	43.7903	85.2422	60.5764	23.8415	89.6606	78.7807	1.97099	122.016	104.448	50.0886	112.127	118.621	24.9954	94.8596	111.195	-1.2681	137.967	105.42	33.7512	122.073	110.467	4.29762	103.809	90.5995	-11.5763	146.105	85.694	17.9857	126.419	73.3244	-2.00443	116.559	46.1258	13.78	159.961	68.4904	11.3967	130.618	56.6881	2.86962	126.635	37.929	26.324	164.49	57.0368	63.8625	168.436	29.9992	79.3819	138.589	55.1061	86.5692	
99	0.825	104.67	37.2806	73.9587	93.815	44.774	43.6553	84.4044	64.2159	22.733	89.9632	80.6929	2.06908	118.87	105.102	52.1058	109.653	120.008	29.0499	96.2316	110.446	-0.978702	135.327	106.606	36.2218	123.636	111.353	8.07734	102.588	90.2879	-10.5912	144.013	86.8719	17.4214	125.563	70.7894	-1.86654	117.943	44.3531	15.4765	157.289	70.0251	9.83863	133.391	52.7735	1.13369	124.674	37.3712	28.2361	165.558	58.8332	61.2084	170.127	30.7801	78.471	139.333	53.0543	86.5218	
100	0.833333	106.568	36.8423	73.7802	90.885	46.0278	44.6182	82.9604	61.618	24.3164	94.1778	79.7047	4.75797	122.426	105.255	50.6605	109.8	121.46	26.2477	99.7265	112.842	1.03919	137.588	104.299	35.1429	124.176	110.479	5.80274	104.483	90.1196	-10.9026	145.812	86.4454	18.7361	123.308	72.8196	-0.625173	115.885	44.1672	20.005	156.954	69.4706	13.722	132.397	57.491	2.31406	126.82	36.2466	27.9344	163.566	57.8414	63.7091	169.689	31.2642	77.5087	141.514	53.9552	87.651	
101	0.841667	104.052	40.325	72.8018	94.4691	48.6201	42.9755	82.3686	66.8044	22.8954	87.7332	79.6832	5.32125	119.196	108.259	52.1396	109.843	121.903	28.6714	97.8745	111.849	-0.806877	137.669	106.017	34.3013	123.773	111.505	8.89621	101.815	87.624	-11.1743	142.608	88.1339	19.7533	123.35	73.2525	0.288217	113.672	46.3144	18.6231	155.886	69.1975	16.0917	131.572	56.1963	3.7989	124.108	37.1887	28.5989	165.284	54.5462	63.8766	165.562	29.4313	79.0725	142.313	53.432	86.3576	
102	0.85	106.772	38.3712	72.2565	91.4311	47.2737	43.7575	81.4641	66.2981	22.4555	88.9716	77.8112	5.55912	121.896	105.411	52.6873	113.051	121.554	28.5494	99.4886	113.232	0.329864	139.037	104.169	36.0078	124.617	110.662	5.69354	104.144	84.615	-12.8582	146.048	85.7569	19.7949	124.284	74.8794	-0.118063	113.243	46.9721	16.28	154.679	70.5509	12.9023	132.547	56.3471	2.35184	124.8	36.9848	26.2366	164.477	59.4839	63.0018	167.544	28.2881	79.6547	142.428	52.1295	86.2974	
103	0.858333	102.894	37.6192	74.0466	91.6504	47.4471	44.1748	83.9275	64.9777	24.3915	89.5572	83.0161	3.29581	124.002	107.281	49.9381	110.235	122.734	26.9069	95.6385	114.351	1.2007	140.773	102.893	34.4176	122.898	111.223	7.30575	102.753	89.8282	-9.63638	143.891	87.4805	18.2445	125.477	74.674	-0.72149	114.176	46.9024	15.2493	155.559	69.5791	10.6438	131.919	58.0874	1.23864	121.58	37.728	25.34	166.397	57.0611	62.2398	165.579	29.1422	80.012	138.44	52.6768	88.969	
104	0.866667	106.438	37.2994	73.1449	87.7066	50.2255	44.366	84.27	67.1727	23.9434	89.7269	80.2752	5.37568	121.486	107.064	53.6562	110.286	124.286	27.3786	99.6287	113.768	0.422695	137.395	106.701	35.4517	125.813	111.157	6.21683	104.985	88.9797	-11.4896	145.111	85.7865	16.7049	120.736	73.8736	0.186928	114.674	44.6987	17.2608	156.466	68.3816	12.4416	130.871	55.6773	0.758197	120.019	38.7782	29.9605	165.823	53.8567	64.0465	165.325	26.2757	78.3094	141.319	50.0121	85.3183	
